<svg viewBox="0 0 400 400" xmlns="http://www.w3.org/2000/svg">
  <!-- Background circle -->
  <circle cx="200" cy="200" r="190" fill="#E8B838" stroke="#000000" stroke-width="8"/>
  
  <!-- Fossa head -->
  <g transform="translate(200, 200)">
    <!-- Head shape -->
    <ellipse cx="0" cy="-30" rx="140" ry="110" fill="#8B4513"/>
    <ellipse cx="0" cy="-25" rx="130" ry="105" fill="#A0522D"/>
    
    <!-- Ears -->
    <ellipse cx="-80" cy="-110" rx="35" ry="45" fill="#8B4513"/>
    <ellipse cx="80" cy="-110" rx="35" ry="45" fill="#8B4513"/>
    <ellipse cx="-80" cy="-105" rx="26" ry="35" fill="#D2691E"/>
    <ellipse cx="80" cy="-105" rx="26" ry="35" fill="#D2691E"/>
    
    <!-- Snout -->
    <ellipse cx="0" cy="50" rx="70" ry="55" fill="#A0522D"/>
    <ellipse cx="0" cy="55" rx="58" ry="45" fill="#D2691E"/>
    
    <!-- Nose -->
    <ellipse cx="0" cy="35" rx="18" ry="14" fill="#000000"/>
    
    <!-- Eyes -->
    <ellipse cx="-45" cy="-30" rx="25" ry="30" fill="#FFFFFF"/>
    <ellipse cx="45" cy="-30" rx="25" ry="30" fill="#FFFFFF"/>
    <ellipse cx="-45" cy="-30" rx="18" ry="25" fill="#FF0000"/>
    <ellipse cx="45" cy="-30" rx="18" ry="25" fill="#FF0000"/>
    <ellipse cx="-45" cy="-36" rx="9" ry="14" fill="#000000"/>
    <ellipse cx="45" cy="-36" rx="9" ry="14" fill="#000000"/>
    
    <!-- Mouth -->
    <path d="M -35 75 Q 0 95 35 75" stroke="#000000" stroke-width="6" fill="none"/>
    
    <!-- Whiskers -->
    <line x1="-105" y1="40" x2="-135" y2="35" stroke="#000000" stroke-width="3"/>
    <line x1="-105" y1="50" x2="-135" y2="53" stroke="#000000" stroke-width="3"/>
    <line x1="105" y1="40" x2="135" y2="35" stroke="#000000" stroke-width="3"/>
    <line x1="105" y1="50" x2="135" y2="53" stroke="#000000" stroke-width="3"/>
    
    <!-- Facial markings -->
    <path d="M -58 -10 Q -35 20 -58 45" stroke="#654321" stroke-width="4" fill="none"/>
    <path d="M 58 -10 Q 35 20 58 45" stroke="#654321" stroke-width="4" fill="none"/>
  </g>
  
  <!-- Bottom black section -->
  <path d="M 20 320 Q 200 280 380 320 L 380 380 Q 200 420 20 380 Z" fill="#000000"/>
  
  <!-- Text -->
  <text x="200" y="360" font-family="Arial, sans-serif" font-size="48" font-weight="bold" fill="#FFFFFF" text-anchor="middle">GagooS</text>
</svg>